<svg xmlns="http://www.w3.org/2000/svg" viewBox="0 0 48 48" width="48px" height="48px">
  <linearGradient id="dEMNj9L2uIAKgPbovVI86a" x1="24" x2="24" y1="6.708" y2="43.411" gradientUnits="userSpaceOnUse">
    <stop offset="0" stop-color="#f44f5a"/>
    <stop offset=".443" stop-color="#ee3d4a"/>
    <stop offset="1" stop-color="#e52030"/>
  </linearGradient>
  <path fill="url(#dEMNj9L2uIAKgPbovVI86a)" d="M34,7H14c-3.866,0-7,3.134-7,7v20c0,3.866,3.134,7,7,7h20c3.866,0,7-3.134,7-7V14 C41,10.134,37.866,7,34,7z"/>
  <path fill="#fff" d="M29.166,20.168c-0.238,0.049-0.482,0.076-0.729,0.076c-3.14,0-5.768-2.926-6.064-6.742 c-0.001-0.021-0.003-0.043-0.005-0.064h-4.366v19.887c0,1.634-1.336,2.967-2.965,2.967c-1.631,0-2.967-1.333-2.967-2.967 c0-1.632,1.336-2.967,2.967-2.967c0.101,0,0.198,0.011,0.297,0.021v-4.389c-0.08-0.012-0.188-0.012-0.297-0.012 c-4.078,0-7.388,3.311-7.388,7.391c0,4.078,3.311,7.389,7.388,7.389c4.079,0,7.391-3.311,7.391-7.389V21.406 c1.254,0.9,2.784,1.434,4.428,1.434c0.254,0,0.502-0.019,0.749-0.04v-4.357C28.896,18.506,29.053,18.578,29.166,20.168z M33.818,15.265V12.38c-0.965,0-1.812-0.012-2.453-0.012c-0.257,0-0.472,0.003-0.667,0.009v2.909c1.139,0.075,2.275-0.521,3.043-1.395 C33.746,14.762,33.779,15.014,33.818,15.265L33.818,15.265z"/>
  <path fill="#78e5db" d="M33.818,12.368v-2.99h-8.007c0,0.021,0.004,0.043,0.005,0.064c0.296,3.816,2.924,6.742,6.064,6.742 c0.247,0,0.49-0.027,0.729-0.076c-0.113-1.59-0.271-1.662-0.271-1.724v-2.909c0.195-0.006,0.41-0.009,0.667-0.009 C33.004,11.455,33.852,11.467,33.818,12.368z"/>
  <path fill="#6dd9cd" d="M33.818,12.368c-0.033-0.9-0.814-0.912-1.813-0.912c-0.257,0-0.472,0.003-0.667,0.009 c-0.004,0.135-0.013,0.27-0.013,0.404c0,1.662,0.107,3.236,0.296,4.68c0.228,0.034,0.457,0.058,0.688,0.058 c0.077,0,0.151-0.013,0.227-0.015c-0.04-0.251-0.072-0.503-0.077-0.774c-0.768,0.874-1.904,1.47-3.043,1.395v-2.909V12.38V9.442 h-8.008v0.001h-4.366v19.887c0,1.634-1.336,2.967-2.965,2.967c-0.752,0-1.431-0.294-1.956-0.758c-0.031,0.226-0.058,0.454-0.058,0.69 c0,2.632,2.138,4.77,4.771,4.77c2.63,0,4.768-2.138,4.768-4.77V11.409h4.853c-0.022-0.403-0.039-0.806-0.039-1.218 c0-0.153,0.011-0.302,0.014-0.454h0.782v3.14c0,0.202,0.015,0.404,0.022,0.606c0.03,0.913,0.15,1.801,0.335,2.646v-2.6h4.05 c-0.187-1.443-0.296-3.018-0.296-4.68c0-0.134,0.009-0.27,0.013-0.404v0.007c0-0.032,0.002-0.063,0.003-0.095h2.447L33.818,12.368z"/>
  <path fill="#fff" d="M29.166,20.168c-0.238,0.049-0.482,0.076-0.729,0.076c-3.14,0-5.768-2.926-6.064-6.742 c-0.001-0.021-0.003-0.043-0.005-0.064h-4.366v19.887c0,1.634-1.336,2.967-2.965,2.967c-1.631,0-2.967-1.333-2.967-2.967 c0-1.632,1.336-2.967,2.967-2.967c0.101,0,0.198,0.011,0.297,0.021v-4.389c-0.08-0.012-0.188-0.012-0.297-0.012 c-4.078,0-7.388,3.311-7.388,7.391c0,4.078,3.311,7.389,7.388,7.389c4.079,0,7.391-3.311,7.391-7.389V21.406 c1.254,0.9,2.784,1.434,4.428,1.434c0.254,0,0.502-0.019,0.749-0.04v-4.357C28.896,18.506,29.053,18.578,29.166,20.168z M33.818,15.265V12.38c-0.965,0-1.812-0.012-2.453-0.012c-0.257,0-0.472,0.003-0.667,0.009v2.909c1.139,0.075,2.275-0.521,3.043-1.395 C33.746,14.762,33.779,15.014,33.818,15.265L33.818,15.265z"/>
</svg>
